<svg xmlns="http://www.w3.org/2000/svg" viewBox="0 0 64 64">
  <defs>
    <linearGradient id="bg" x1="10" y1="8" x2="54" y2="56" gradientUnits="userSpaceOnUse">
      <stop stop-color="#3b82f6"/>
      <stop offset="1" stop-color="#7c3aed"/>
    </linearGradient>
  </defs>
  <rect width="64" height="64" rx="14" fill="url(#bg)"/>
  <path d="M18 20h28v7H36v22h-8V27H18z" fill="#fff"/>
  <path d="M45 31c-2.4-2-5.2-3-8.4-3-6.2 0-10.7 4.4-10.7 10.5S30.4 49 36.6 49c3.4 0 6.2-1.1 8.6-3.2l-4.4-5c-1.2 1-2.4 1.5-4 1.5-2.5 0-4.2-1.6-4.2-3.8s1.7-3.8 4.2-3.8c1.5 0 2.8.5 3.8 1.4z" fill="#dbeafe"/>
</svg>
